<svg xmlns="http://www.w3.org/2000/svg" width="1996.809" height="1195.732" viewBox="0 0 1996.809 1195.732">
  <g id="Group_1182" data-name="Group 1182" transform="translate(-2001.33 -902.784)">
    <path id="Path_1381" data-name="Path 1381" d="M3807.224,1830.387l-580.248,0-32.221,184.748,612.594.016" fill="#003679"/>
    <path id="Path_1382" data-name="Path 1382" d="M3169.052,1830.389l-413.957.029-482.991-.029v184.75l925.056.014" fill="#d70734"/>
    <path id="Path_1383" data-name="Path 1383" d="M2765.361,1291.83s6.4,14.6,18.75,4.523l174.983-86.763s13.086-10.937-7.063-20.5l-250.268-85.979s-28.365-5.8-19.928,17.645Z" fill="#d70734"/>
    <rect id="Rectangle_573" data-name="Rectangle 573" width="750.095" height="184.75" transform="translate(2005 1830.389)" fill="#d70734"/>
    <path id="Path_1384" data-name="Path 1384" d="M2421.137,1729.6,2452,1680.33c21.114,22.738,49.268,31.942,81.751,31.942,33.026,0,72.547-14.077,72.547-67.133v-25.446c-20.573,25.987-48.726,40.606-81.21,40.606-64.967,0-115.316-45.479-115.316-132.643,0-85.541,49.266-133.183,115.316-133.183,31.4,0,60.1,12.994,81.21,40.062v-33.566h68.758v244.17c0,99.076-76.878,123.439-141.3,123.439C2489.353,1768.578,2454.161,1758.291,2421.137,1729.6Zm185.157-159.713v-85c-11.911-16.783-36.815-29.235-59.013-29.235-39.521,0-66.591,27.071-66.591,72.006s27.07,72.006,66.591,72.006C2569.479,1599.662,2594.383,1586.668,2606.294,1569.885Z" fill="#003679" stroke="#003679" stroke-miterlimit="10" stroke-width="20"/>
    <path id="Path_1385" data-name="Path 1385" d="M2743.265,1662.463V1400.969h68.758v261.494Z" fill="#003679" stroke="#003679" stroke-miterlimit="10" stroke-width="20"/>
    <path id="Path_1386" data-name="Path 1386" d="M2880.233,1596.955V1335.667l68.758-34.315v277.195c0,16.783,8.662,29.236,23.823,29.236,10.287,0,20.031-3.791,23.82-8.121l14.619,52.516c-10.287,9.2-29.236,16.783-57.389,16.783C2905.68,1668.961,2880.233,1644.057,2880.233,1596.955Z" fill="#003679" stroke="#003679" stroke-miterlimit="10" stroke-width="20"/>
    <path id="Path_1387" data-name="Path 1387" d="M3024.782,1531.445c0-75.795,56.3-136.972,135.35-136.972,78.5,0,131.017,58.47,131.017,143.468v16.243H3096.788c4.873,31.943,30.859,58.47,75.254,58.47,22.2,0,52.516-9.2,69.3-25.445l30.859,45.479c-25.986,23.82-67.133,36.273-107.738,36.273C3084.878,1668.961,3024.782,1615.361,3024.782,1531.445Zm135.35-80.668c-42.772,0-61.178,29.778-63.885,55.764H3225.1C3222.933,1481.637,3205.608,1450.777,3160.132,1450.777Z" fill="#003679" stroke="#003679" stroke-miterlimit="10" stroke-width="20"/>
    <g id="Group_1180" data-name="Group 1180">
      <path id="Path_1388" data-name="Path 1388" d="M2513.926,1986.912l-7-18.836h-47.673l-7,18.836h-26.837l42.838-111.181h29.671l42.838,111.181Zm-30.838-87.512-17.335,47.84h34.671Z" fill="#fff"/>
      <path id="Path_1389" data-name="Path 1389" d="M2585.1,1971.243l13-18.5a48.846,48.846,0,0,0,35.338,15.169c13.168,0,19.335-5.834,19.335-12.335,0-19.336-64.007-5.834-64.007-47.672,0-18.5,16-33.837,42.172-33.837,17.668,0,32.336,5.333,43.338,15.5l-13.169,17.669c-9-8.335-21-12.169-32.336-12.169-10,0-15.669,4.334-15.669,11,0,17.5,63.841,5.668,63.841,47.172,0,20.336-14.669,35.672-44.505,35.672C2610.937,1988.912,2595.6,1981.744,2585.1,1971.243Z" fill="#fff"/>
      <path id="Path_1390" data-name="Path 1390" d="M2734.452,1986.912V1875.731h23.67v111.181Z" fill="#fff"/>
      <path id="Path_1391" data-name="Path 1391" d="M2898.637,1986.912l-7-18.836h-47.672l-7,18.836h-26.837l42.839-111.181h29.67l42.839,111.181ZM2867.8,1899.4l-17.336,47.84h34.671Z" fill="#fff"/>
    </g>
    <path id="Path_1392" data-name="Path 1392" d="M3168.963,2015.137c307.53,0,556.82-248,556.82-555.533s-249.29-556.82-556.82-556.82c-175.79,0-332.55,81.46-434.59,208.691l190.16,69.369a369.3,369.3,0,0,1,244.43-91.99c204.76,0,370.75,165.99,370.75,370.75s-165.945,370.794-370.7,370.794" fill="#d70734"/>
    <path id="Path_1393" data-name="Path 1393" d="M3993.858,1911.525c0-.009-.019-.019-.019-.019l-1.272-1.291a.452.452,0,0,0-.078-.07l-156.98-158c-.09-.09-.18-.18-.27-.26a16.993,16.993,0,0,0-28.9,12.131v317.5a17,17,0,0,0,27.89,13.049,16.311,16.311,0,0,0,2.23-2.239.251.251,0,0,0,.04-.051l155.068-156.06a16.466,16.466,0,0,0,3.062-3.08,16.98,16.98,0,0,0-.771-21.61Z" fill="#003679"/>
    <path id="Path_1394" data-name="Path 1394" d="M2734.373,1111.475s-18.79,25.74-21.79,31.74l211.25,58.25v-42.25l-178.5-47.74Z" fill="#d70734"/>
    <g id="Group_1181" data-name="Group 1181">
      <path id="Path_1395" data-name="Path 1395" d="M2110.229,1672.819l93.431-265.725,92.213,265.725h110.414l-148.026-382.207H2148.753L2001.33,1672.819Z" fill="#003679"/>
      <path id="Path_1396" data-name="Path 1396" d="M2149.333,1672.819H2255l-53.012-151.972Z" fill="#d70734"/>
    </g>
  </g>
</svg>
